# xmcd
#
# Track frame offsets:
# 150
# 12830
# 25208
# 37889
# 51132
# 65462
# 78830
# 93736
# 108639
# 121322
# 136100
# 151128
# 163841
# 177054
# 190937
# 204797
#
# Disc length: 2899 seconds
#
# Revision: 1
# Processed by: cddbd v1.5.1PL2 Copyright (c) Steve Scherf et al.
# Submitted via: Easy CD Ripper v2.37
#
DISCID=c40b5110
DTITLE=The Carter Family - Sunshine in the Shadows
DYEAR=1996
DGENRE=Country
TTITLE0=Sunshine in the Shadows
TTITLE1=Let the Church Roll On
TTITLE2=Lonesome for You
TTITLE3=Can't Feel at Home
TTITLE4=Why There's a Tear in My Eye
TTITLE5=The Wonderful City
TTITLE6=Jimmie Rodgers Visits the Carter Family
TTITLE7=The Carter Family and Jimmie Rodgers in Texas
TTITLE8=Mid the Green Fields in Virginia
TTITLE9=The Happiest Days of Them All
TTITLE10=Picture On the Wall
TTITLE11=Amber Tresses
TTITLE12=I Never Loved But One
TTITLE13=Tell Me That You Love Me
TTITLE14=Where We'll Never Grow Old
TTITLE15=We Will March Through the Streets of the City
EXTD=
EXTT0=
EXTT1=
EXTT2=
EXTT3=
EXTT4=
EXTT5=
EXTT6=
EXTT7=
EXTT8=
EXTT9=
EXTT10=
EXTT11=
EXTT12=
EXTT13=
EXTT14=
EXTT15=
PLAYORDER=
